<mxfile host="app.diagrams.net" modified="2020-07-06T07:48:01.245Z" agent="5.0 (Macintosh; Intel Mac OS X 10_15_5) AppleWebKit/537.36 (KHTML, like Gecko) Chrome/83.0.4103.97 Safari/537.36" etag="ZZ25dXsKg_7oGHEZ7y8P" version="13.3.5" type="github">
  <diagram id="aWIQuP0ogDRBMYMRiHV5" name="第 1 页">
    <mxGraphModel dx="1652" dy="612" grid="1" gridSize="10" guides="1" tooltips="1" connect="1" arrows="1" fold="1" page="1" pageScale="1" pageWidth="1920" pageHeight="1200" math="0" shadow="0">
      <root>
        <mxCell id="0" />
        <mxCell id="1" parent="0" />
        <mxCell id="ul0weT7Kjf3ain_7tGCR-52" style="edgeStyle=none;rounded=0;orthogonalLoop=1;jettySize=auto;html=1;exitX=1;exitY=0.5;exitDx=0;exitDy=0;entryX=0;entryY=0.5;entryDx=0;entryDy=0;" parent="1" source="ul0weT7Kjf3ain_7tGCR-48" target="ul0weT7Kjf3ain_7tGCR-51" edge="1">
          <mxGeometry relative="1" as="geometry" />
        </mxCell>
        <mxCell id="ul0weT7Kjf3ain_7tGCR-56" value="读取异常转码请求" style="edgeLabel;html=1;align=center;verticalAlign=middle;resizable=0;points=[];" parent="ul0weT7Kjf3ain_7tGCR-52" vertex="1" connectable="0">
          <mxGeometry x="-0.342" y="-1" relative="1" as="geometry">
            <mxPoint x="24.48" y="-0.92" as="offset" />
          </mxGeometry>
        </mxCell>
        <mxCell id="ul0weT7Kjf3ain_7tGCR-48" value="" style="rounded=0;whiteSpace=wrap;html=1;strokeColor=#000000;fillColor=#FFFFFF;" parent="1" vertex="1">
          <mxGeometry x="990" y="139" width="160" height="62" as="geometry" />
        </mxCell>
        <mxCell id="ul0weT7Kjf3ain_7tGCR-33" value="" style="rounded=0;whiteSpace=wrap;html=1;strokeColor=#000000;fillColor=#FFFFFF;" parent="1" vertex="1">
          <mxGeometry x="780" y="450" width="200" height="66" as="geometry" />
        </mxCell>
        <mxCell id="ul0weT7Kjf3ain_7tGCR-15" value="" style="rounded=0;whiteSpace=wrap;html=1;strokeColor=#000000;fillColor=#FFFFFF;" parent="1" vertex="1">
          <mxGeometry x="800" y="140" width="120" height="60" as="geometry" />
        </mxCell>
        <mxCell id="ul0weT7Kjf3ain_7tGCR-1" value="" style="rounded=0;whiteSpace=wrap;html=1;" parent="1" vertex="1">
          <mxGeometry x="400" y="260" width="120" height="40" as="geometry" />
        </mxCell>
        <mxCell id="ul0weT7Kjf3ain_7tGCR-3" value="" style="rounded=0;whiteSpace=wrap;html=1;" parent="1" vertex="1">
          <mxGeometry x="390" y="270" width="120" height="40" as="geometry" />
        </mxCell>
        <mxCell id="ul0weT7Kjf3ain_7tGCR-5" style="rounded=0;orthogonalLoop=1;jettySize=auto;html=1;exitX=1;exitY=0.5;exitDx=0;exitDy=0;entryX=0;entryY=0.5;entryDx=0;entryDy=0;" parent="1" source="ul0weT7Kjf3ain_7tGCR-4" target="ul0weT7Kjf3ain_7tGCR-15" edge="1">
          <mxGeometry relative="1" as="geometry">
            <mxPoint x="600" y="186.75" as="targetPoint" />
          </mxGeometry>
        </mxCell>
        <mxCell id="ul0weT7Kjf3ain_7tGCR-58" value="发现服务" style="edgeLabel;html=1;align=center;verticalAlign=middle;resizable=0;points=[];" parent="ul0weT7Kjf3ain_7tGCR-5" vertex="1" connectable="0">
          <mxGeometry x="0.1768" y="2" relative="1" as="geometry">
            <mxPoint as="offset" />
          </mxGeometry>
        </mxCell>
        <mxCell id="ul0weT7Kjf3ain_7tGCR-42" style="edgeStyle=none;rounded=0;orthogonalLoop=1;jettySize=auto;html=1;exitX=1;exitY=0.5;exitDx=0;exitDy=0;" parent="1" source="ul0weT7Kjf3ain_7tGCR-4" target="ul0weT7Kjf3ain_7tGCR-12" edge="1">
          <mxGeometry relative="1" as="geometry" />
        </mxCell>
        <mxCell id="ul0weT7Kjf3ain_7tGCR-59" value="延时转码请求" style="edgeLabel;html=1;align=center;verticalAlign=middle;resizable=0;points=[];" parent="ul0weT7Kjf3ain_7tGCR-42" vertex="1" connectable="0">
          <mxGeometry x="-0.3016" y="-1" relative="1" as="geometry">
            <mxPoint as="offset" />
          </mxGeometry>
        </mxCell>
        <mxCell id="ul0weT7Kjf3ain_7tGCR-4" value="Gout" style="rounded=0;whiteSpace=wrap;html=1;" parent="1" vertex="1">
          <mxGeometry x="380" y="280" width="120" height="40" as="geometry" />
        </mxCell>
        <mxCell id="ul0weT7Kjf3ain_7tGCR-10" value="" style="rounded=0;whiteSpace=wrap;html=1;" parent="1" vertex="1">
          <mxGeometry x="820" y="240" width="120" height="80" as="geometry" />
        </mxCell>
        <mxCell id="ul0weT7Kjf3ain_7tGCR-11" value="" style="rounded=0;whiteSpace=wrap;html=1;" parent="1" vertex="1">
          <mxGeometry x="810" y="250" width="120" height="80" as="geometry" />
        </mxCell>
        <mxCell id="ul0weT7Kjf3ain_7tGCR-20" style="edgeStyle=none;rounded=0;orthogonalLoop=1;jettySize=auto;html=1;exitX=0.5;exitY=0;exitDx=0;exitDy=0;" parent="1" source="ul0weT7Kjf3ain_7tGCR-12" target="ul0weT7Kjf3ain_7tGCR-15" edge="1">
          <mxGeometry relative="1" as="geometry" />
        </mxCell>
        <mxCell id="ul0weT7Kjf3ain_7tGCR-60" value="持久化延时转码" style="edgeLabel;html=1;align=center;verticalAlign=middle;resizable=0;points=[];" parent="ul0weT7Kjf3ain_7tGCR-20" vertex="1" connectable="0">
          <mxGeometry x="0.3138" relative="1" as="geometry">
            <mxPoint as="offset" />
          </mxGeometry>
        </mxCell>
        <mxCell id="ul0weT7Kjf3ain_7tGCR-46" style="edgeStyle=none;rounded=0;orthogonalLoop=1;jettySize=auto;html=1;exitX=1;exitY=0.5;exitDx=0;exitDy=0;" parent="1" source="ul0weT7Kjf3ain_7tGCR-12" target="ul0weT7Kjf3ain_7tGCR-45" edge="1">
          <mxGeometry relative="1" as="geometry" />
        </mxCell>
        <mxCell id="ul0weT7Kjf3ain_7tGCR-55" value="调转码" style="edgeLabel;html=1;align=center;verticalAlign=middle;resizable=0;points=[];" parent="ul0weT7Kjf3ain_7tGCR-46" vertex="1" connectable="0">
          <mxGeometry x="0.0064" y="-1" relative="1" as="geometry">
            <mxPoint as="offset" />
          </mxGeometry>
        </mxCell>
        <mxCell id="ul0weT7Kjf3ain_7tGCR-50" style="edgeStyle=none;rounded=0;orthogonalLoop=1;jettySize=auto;html=1;entryX=0.5;entryY=1;entryDx=0;entryDy=0;" parent="1" target="ul0weT7Kjf3ain_7tGCR-48" edge="1">
          <mxGeometry relative="1" as="geometry">
            <mxPoint x="920" y="280" as="sourcePoint" />
          </mxGeometry>
        </mxCell>
        <mxCell id="ul0weT7Kjf3ain_7tGCR-54" value="调转码失败写MySQL" style="edgeLabel;html=1;align=center;verticalAlign=middle;resizable=0;points=[];" parent="ul0weT7Kjf3ain_7tGCR-50" vertex="1" connectable="0">
          <mxGeometry x="0.0044" relative="1" as="geometry">
            <mxPoint y="-1" as="offset" />
          </mxGeometry>
        </mxCell>
        <mxCell id="ul0weT7Kjf3ain_7tGCR-12" value="&amp;nbsp; &amp;nbsp; &amp;nbsp; &amp;nbsp;" style="rounded=0;whiteSpace=wrap;html=1;" parent="1" vertex="1">
          <mxGeometry x="800" y="260" width="120" height="80" as="geometry" />
        </mxCell>
        <mxCell id="ul0weT7Kjf3ain_7tGCR-14" value="" style="aspect=fixed;html=1;points=[];align=center;image;fontSize=12;image=img/lib/mscae/Cache_Redis_Product.svg;strokeColor=#000000;fillColor=#000000;" parent="1" vertex="1">
          <mxGeometry x="808.5700000000002" y="150.5" width="46.43" height="39" as="geometry" />
        </mxCell>
        <mxCell id="ul0weT7Kjf3ain_7tGCR-19" value="" style="aspect=fixed;html=1;points=[];align=center;image;fontSize=12;image=img/lib/mscae/Cache_Redis_Product.svg;strokeColor=#000000;fillColor=#000000;" parent="1" vertex="1">
          <mxGeometry x="865" y="150.5" width="46.43" height="39" as="geometry" />
        </mxCell>
        <mxCell id="ul0weT7Kjf3ain_7tGCR-18" style="edgeStyle=elbowEdgeStyle;rounded=0;orthogonalLoop=1;jettySize=auto;html=1;exitX=0;exitY=0;exitDx=0;exitDy=0;entryX=0;entryY=1;entryDx=0;entryDy=0;" parent="1" source="ul0weT7Kjf3ain_7tGCR-12" target="ul0weT7Kjf3ain_7tGCR-15" edge="1">
          <mxGeometry relative="1" as="geometry">
            <mxPoint x="720" y="186.75" as="targetPoint" />
            <Array as="points">
              <mxPoint x="770" y="210" />
            </Array>
          </mxGeometry>
        </mxCell>
        <mxCell id="ul0weT7Kjf3ain_7tGCR-57" value="注册服务" style="edgeLabel;html=1;align=center;verticalAlign=middle;resizable=0;points=[];" parent="ul0weT7Kjf3ain_7tGCR-18" vertex="1" connectable="0">
          <mxGeometry x="0.2258" y="2" relative="1" as="geometry">
            <mxPoint as="offset" />
          </mxGeometry>
        </mxCell>
        <mxCell id="ul0weT7Kjf3ain_7tGCR-28" value="" style="html=1;dashed=0;whitespace=wrap;fillColor=#2875E2;strokeColor=#ffffff;points=[[0.005,0.63,0],[0.1,0.2,0],[0.9,0.2,0],[0.5,0,0],[0.995,0.63,0],[0.72,0.99,0],[0.5,1,0],[0.28,0.99,0]];shape=mxgraph.kubernetes.icon;prIcon=pod" parent="1" vertex="1">
          <mxGeometry x="790" y="320" width="30" height="30" as="geometry" />
        </mxCell>
        <mxCell id="ul0weT7Kjf3ain_7tGCR-34" value="" style="rounded=0;whiteSpace=wrap;html=1;strokeColor=#000000;fillColor=#FFFFFF;" parent="1" vertex="1">
          <mxGeometry x="770" y="459" width="200" height="66" as="geometry" />
        </mxCell>
        <mxCell id="ul0weT7Kjf3ain_7tGCR-40" style="edgeStyle=none;rounded=0;orthogonalLoop=1;jettySize=auto;html=1;exitX=0.5;exitY=0;exitDx=0;exitDy=0;entryX=0.5;entryY=1;entryDx=0;entryDy=0;" parent="1" source="ul0weT7Kjf3ain_7tGCR-35" target="ul0weT7Kjf3ain_7tGCR-12" edge="1">
          <mxGeometry relative="1" as="geometry" />
        </mxCell>
        <mxCell id="ul0weT7Kjf3ain_7tGCR-35" value="" style="rounded=0;whiteSpace=wrap;html=1;strokeColor=#000000;fillColor=#FFFFFF;" parent="1" vertex="1">
          <mxGeometry x="760" y="469" width="200" height="66" as="geometry" />
        </mxCell>
        <mxCell id="ul0weT7Kjf3ain_7tGCR-36" value="" style="html=1;dashed=0;whitespace=wrap;fillColor=#2875E2;strokeColor=#ffffff;points=[[0.005,0.63,0],[0.1,0.2,0],[0.9,0.2,0],[0.5,0,0],[0.995,0.63,0],[0.72,0.99,0],[0.5,1,0],[0.28,0.99,0]];shape=mxgraph.kubernetes.icon;prIcon=node" parent="1" vertex="1">
          <mxGeometry x="880" y="477" width="50" height="48" as="geometry" />
        </mxCell>
        <mxCell id="ul0weT7Kjf3ain_7tGCR-43" value="" style="rounded=0;whiteSpace=wrap;html=1;" parent="1" vertex="1">
          <mxGeometry x="1370" y="265" width="120" height="40" as="geometry" />
        </mxCell>
        <mxCell id="ul0weT7Kjf3ain_7tGCR-44" value="" style="rounded=0;whiteSpace=wrap;html=1;" parent="1" vertex="1">
          <mxGeometry x="1360" y="275" width="120" height="40" as="geometry" />
        </mxCell>
        <mxCell id="ul0weT7Kjf3ain_7tGCR-45" value="转码" style="rounded=0;whiteSpace=wrap;html=1;" parent="1" vertex="1">
          <mxGeometry x="1350" y="285" width="120" height="40" as="geometry" />
        </mxCell>
        <mxCell id="ul0weT7Kjf3ain_7tGCR-47" value="" style="outlineConnect=0;fontColor=#232F3E;gradientColor=none;fillColor=#3334B9;strokeColor=none;dashed=0;verticalLabelPosition=bottom;verticalAlign=top;align=center;html=1;fontSize=12;fontStyle=0;aspect=fixed;pointerEvents=1;shape=mxgraph.aws4.rds_mysql_instance;" parent="1" vertex="1">
          <mxGeometry x="1010" y="147.38" width="40.75" height="40.75" as="geometry" />
        </mxCell>
        <mxCell id="ul0weT7Kjf3ain_7tGCR-49" value="" style="outlineConnect=0;fontColor=#232F3E;gradientColor=none;fillColor=#3334B9;strokeColor=none;dashed=0;verticalLabelPosition=bottom;verticalAlign=top;align=center;html=1;fontSize=12;fontStyle=0;aspect=fixed;pointerEvents=1;shape=mxgraph.aws4.rds_mysql_instance;" parent="1" vertex="1">
          <mxGeometry x="1090" y="147.38" width="40.5" height="40.5" as="geometry" />
        </mxCell>
        <mxCell id="ul0weT7Kjf3ain_7tGCR-53" value="数据恢复" style="edgeStyle=none;rounded=0;orthogonalLoop=1;jettySize=auto;html=1;exitX=0.5;exitY=1;exitDx=0;exitDy=0;entryX=0.5;entryY=0;entryDx=0;entryDy=0;" parent="1" source="ul0weT7Kjf3ain_7tGCR-51" target="ul0weT7Kjf3ain_7tGCR-45" edge="1">
          <mxGeometry relative="1" as="geometry" />
        </mxCell>
        <mxCell id="ul0weT7Kjf3ain_7tGCR-51" value="Gout" style="rounded=0;whiteSpace=wrap;html=1;" parent="1" vertex="1">
          <mxGeometry x="1350" y="149.5" width="120" height="40.5" as="geometry" />
        </mxCell>
        <mxCell id="D6odsR5bOJY8xd4uKapW-3" value="boltdb" style="rounded=0;whiteSpace=wrap;html=1;fillColor=#00994D;" vertex="1" parent="1">
          <mxGeometry x="840" y="310" width="80" height="30" as="geometry" />
        </mxCell>
        <mxCell id="D6odsR5bOJY8xd4uKapW-7" style="edgeStyle=orthogonalEdgeStyle;curved=1;rounded=0;orthogonalLoop=1;jettySize=auto;html=1;exitX=1;exitY=0.5;exitDx=0;exitDy=0;" edge="1" parent="1" source="D6odsR5bOJY8xd4uKapW-6" target="D6odsR5bOJY8xd4uKapW-3">
          <mxGeometry relative="1" as="geometry" />
        </mxCell>
        <mxCell id="D6odsR5bOJY8xd4uKapW-6" value="" style="shape=image;html=1;verticalAlign=top;verticalLabelPosition=bottom;labelBackgroundColor=#ffffff;imageAspect=0;aspect=fixed;image=https://cdn1.iconfinder.com/data/icons/Futurosoft%20Icons%200.5.2/128x128/apps/clock.png;fillColor=#00994D;" vertex="1" parent="1">
          <mxGeometry x="800" y="260" width="30" height="30" as="geometry" />
        </mxCell>
        <mxCell id="D6odsR5bOJY8xd4uKapW-8" value="Chronos" style="text;html=1;strokeColor=none;fillColor=none;align=center;verticalAlign=middle;whiteSpace=wrap;rounded=0;" vertex="1" parent="1">
          <mxGeometry x="805" y="285" width="40" height="20" as="geometry" />
        </mxCell>
        <mxCell id="D6odsR5bOJY8xd4uKapW-10" style="edgeStyle=orthogonalEdgeStyle;curved=1;rounded=0;orthogonalLoop=1;jettySize=auto;html=1;exitX=0.5;exitY=0;exitDx=0;exitDy=0;exitPerimeter=0;entryX=0.5;entryY=1;entryDx=0;entryDy=0;entryPerimeter=0;" edge="1" parent="1" source="D6odsR5bOJY8xd4uKapW-9" target="ul0weT7Kjf3ain_7tGCR-28">
          <mxGeometry relative="1" as="geometry">
            <Array as="points">
              <mxPoint x="770" y="478" />
              <mxPoint x="770" y="350" />
            </Array>
          </mxGeometry>
        </mxCell>
        <mxCell id="D6odsR5bOJY8xd4uKapW-14" value="ReadLess" style="edgeLabel;html=1;align=center;verticalAlign=middle;resizable=0;points=[];" vertex="1" connectable="0" parent="D6odsR5bOJY8xd4uKapW-10">
          <mxGeometry x="0.1212" y="-2" relative="1" as="geometry">
            <mxPoint as="offset" />
          </mxGeometry>
        </mxCell>
        <mxCell id="D6odsR5bOJY8xd4uKapW-11" style="edgeStyle=orthogonalEdgeStyle;curved=1;rounded=0;orthogonalLoop=1;jettySize=auto;html=1;exitX=0.5;exitY=0;exitDx=0;exitDy=0;exitPerimeter=0;entryX=0.5;entryY=1;entryDx=0;entryDy=0;entryPerimeter=0;" edge="1" parent="1" source="D6odsR5bOJY8xd4uKapW-9" target="ul0weT7Kjf3ain_7tGCR-28">
          <mxGeometry relative="1" as="geometry">
            <Array as="points">
              <mxPoint x="840" y="478" />
              <mxPoint x="840" y="350" />
            </Array>
          </mxGeometry>
        </mxCell>
        <mxCell id="D6odsR5bOJY8xd4uKapW-15" value="LiveLess" style="edgeLabel;html=1;align=center;verticalAlign=middle;resizable=0;points=[];" vertex="1" connectable="0" parent="D6odsR5bOJY8xd4uKapW-11">
          <mxGeometry x="0.0909" relative="1" as="geometry">
            <mxPoint as="offset" />
          </mxGeometry>
        </mxCell>
        <mxCell id="D6odsR5bOJY8xd4uKapW-9" value="" style="html=1;dashed=0;whitespace=wrap;fillColor=#2875E2;strokeColor=#ffffff;points=[[0.005,0.63,0],[0.1,0.2,0],[0.9,0.2,0],[0.5,0,0],[0.995,0.63,0],[0.72,0.99,0],[0.5,1,0],[0.28,0.99,0]];shape=mxgraph.kubernetes.icon;prIcon=kubelet" vertex="1" parent="1">
          <mxGeometry x="780" y="478" width="50" height="48" as="geometry" />
        </mxCell>
      </root>
    </mxGraphModel>
  </diagram>
</mxfile>
